<svg width="13" height="14" viewBox="0 0 13 14" fill="none" xmlns="http://www.w3.org/2000/svg">
<path d="M3.91536 2.43889C3.91536 2.20285 3.67071 2.048 3.46562 2.16486C1.61266 3.22068 0.363281 5.21411 0.363281 7.49935C0.363281 10.8878 3.1102 13.6348 6.4987 13.6348C9.88719 13.6348 12.6341 10.8878 12.6341 7.49935C12.6341 5.21411 11.3847 3.22068 9.53177 2.16486C9.32669 2.048 9.08203 2.20285 9.08203 2.43889V4.03276C9.08203 4.13213 9.12829 4.22539 9.20423 4.28947C10.1169 5.05952 10.6966 6.21173 10.6966 7.49935C10.6966 9.81779 8.81714 11.6973 6.4987 11.6973C4.18025 11.6973 2.30078 9.81779 2.30078 7.49935C2.30078 6.21173 2.8805 5.05952 3.79316 4.28946C3.86911 4.22539 3.91536 4.13213 3.91536 4.03276V2.43889Z" fill="white"/>
<path d="M7.46745 1.04102C7.46745 0.50599 7.03372 0.0722656 6.4987 0.0722656C5.96367 0.0722656 5.52995 0.50599 5.52995 1.04102V7.49935C5.52995 8.03437 5.96367 8.4681 6.4987 8.4681C7.03372 8.4681 7.46745 8.03437 7.46745 7.49935V1.04102Z" fill="white"/>
</svg>
