<svg width="19" height="19" viewBox="0 0 19 19" fill="none" xmlns="http://www.w3.org/2000/svg">
<path d="M9.5013 7.125C8.87141 7.125 8.26732 7.37522 7.82192 7.82062C7.37652 8.26602 7.1263 8.87011 7.1263 9.5C7.1263 10.1299 7.37652 10.734 7.82192 11.1794C8.26732 11.6248 8.87141 11.875 9.5013 11.875C10.1312 11.875 10.7353 11.6248 11.1807 11.1794C11.6261 10.734 11.8763 10.1299 11.8763 9.5C11.8763 8.87011 11.6261 8.26602 11.1807 7.82062C10.7353 7.37522 10.1312 7.125 9.5013 7.125ZM9.5013 13.4583C8.45149 13.4583 7.44467 13.0413 6.70234 12.299C5.96001 11.5566 5.54297 10.5498 5.54297 9.5C5.54297 8.45018 5.96001 7.44337 6.70234 6.70104C7.44467 5.9587 8.45149 5.54167 9.5013 5.54167C10.5511 5.54167 11.5579 5.9587 12.3003 6.70104C13.0426 7.44337 13.4596 8.45018 13.4596 9.5C13.4596 10.5498 13.0426 11.5566 12.3003 12.299C11.5579 13.0413 10.5511 13.4583 9.5013 13.4583ZM9.5013 3.5625C5.54297 3.5625 2.16255 6.02458 0.792969 9.5C2.16255 12.9754 5.54297 15.4375 9.5013 15.4375C13.4596 15.4375 16.8401 12.9754 18.2096 9.5C16.8401 6.02458 13.4596 3.5625 9.5013 3.5625Z" fill="white"/>
</svg>
